<svg width="35" height="26" viewBox="0 0 35 26" fill="none" xmlns="http://www.w3.org/2000/svg">
<path d="M18.6811 3.00031V12.1203L24.2811 8.88031V6.60031H27.1611V10.2403C27.1611 12.4803 28.2011 13.6003 30.6811 13.6003H31.0411V16.2003H29.5611C27.1211 16.2003 25.6811 17.3603 25.6811 19.2403C25.6811 21.0803 27.2411 21.8803 28.9611 21.8803C30.1211 21.8803 31.5211 21.5603 32.6411 20.9603V23.6403C31.5611 24.2003 30.1611 24.4803 28.7211 24.4803C25.5611 24.4803 22.6011 22.8403 22.6011 19.3603C22.6011 17.0803 23.9611 15.2403 26.3211 14.5203C25.2811 13.9603 24.6811 13.0003 24.4411 11.8003L18.6811 15.1603V26.0003H15.5211V16.7603L3.04109 24.2803V21.0403L12.0011 15.7203C11.2411 12.8803 9.88109 10.5203 6.36109 10.5203C4.64109 10.5203 3.64109 10.8803 2.56109 11.4003V8.40031C3.68109 7.88031 5.12109 7.60031 6.52109 7.60031C10.1611 7.60031 13.2011 9.56031 14.5211 14.2003L15.5211 13.6003V3.00031H0.121094V0.320312H34.6011V3.00031H18.6811Z" fill="#FF5800"/>
</svg>
