<svg width="80" height="26" viewBox="0 0 80 26" fill="none" xmlns="http://www.w3.org/2000/svg">
<path d="M18.6811 3.00016V12.1202L24.2811 8.88016V6.60016H27.1611V10.2402C27.1611 12.4802 28.3344 13.6002 30.6811 13.6002H31.0411V16.2002H29.5611C28.3344 16.2002 27.3744 16.4802 26.6811 17.0402C26.0144 17.5735 25.6811 18.3068 25.6811 19.2402C25.6811 20.1202 25.9878 20.7868 26.6011 21.2402C27.2411 21.6668 28.0278 21.8802 28.9611 21.8802C30.2678 21.8802 31.4944 21.5735 32.6411 20.9602V23.6402C31.5478 24.2002 30.2411 24.4802 28.7211 24.4802C27.0144 24.4802 25.5611 24.0402 24.3611 23.1602C23.1878 22.2802 22.6011 21.0135 22.6011 19.3602C22.6011 18.2135 22.9211 17.2135 23.5611 16.3602C24.2278 15.4802 25.1478 14.8668 26.3211 14.5202C25.3344 13.9868 24.7078 13.0802 24.4411 11.8002L18.6811 15.1602V26.0002H15.5211V16.7602L3.04109 24.2802V21.0402L12.0011 15.7202C11.5744 14.0935 10.9344 12.8268 10.0811 11.9202C9.22776 10.9868 7.98776 10.5202 6.36109 10.5202C5.05443 10.5202 3.78776 10.8135 2.56109 11.4002V8.40016C3.70776 7.86682 5.02776 7.60016 6.52109 7.60016C8.41443 7.60016 10.0544 8.14682 11.4411 9.24016C12.8544 10.3068 13.8811 11.9602 14.5211 14.2002L15.5211 13.6002V3.00016H0.121094V0.320157H34.6011V3.00016H18.6811Z" fill="#FF5800"/>
<path d="M50.0164 11.0802V3.00016H40.0964L49.8564 12.6002C49.9631 12.1735 50.0164 11.6668 50.0164 11.0802ZM39.8164 5.56016V11.0402C39.8164 12.9068 40.2564 14.3068 41.1364 15.2402C42.0431 16.1735 43.2564 16.6402 44.7764 16.6402C46.6431 16.6402 48.0564 15.9202 49.0164 14.4802L39.8164 5.56016ZM57.7764 0.320157V3.00016H53.1364V26.0002H50.0164V16.8402C48.7097 18.3602 46.8831 19.1468 44.5364 19.2002C42.1364 19.2002 40.2297 18.5468 38.8164 17.2402C37.4297 15.9068 36.7364 13.8802 36.7364 11.1602V3.00016H32.8164V0.320157H57.7764Z" fill="#FF5800"/>
<path d="M72.2195 12.1202V0.320157H79.9795V3.00016H75.3395V26.0002H72.2195V14.7602H64.3795V20.2402H61.5795L60.6195 18.0002C59.8995 16.4002 59.5395 15.2135 59.5395 14.4402C59.5395 13.8802 59.6862 13.4002 59.9795 13.0002C60.2995 12.6002 60.7129 12.3468 61.2195 12.2402V5.44016C61.2195 4.53349 61.0862 3.88016 60.8195 3.48016C60.5529 3.05349 60.0729 2.84016 59.3795 2.84016C58.5262 2.84016 57.7795 3.01349 57.1395 3.36016V0.760156C57.9395 0.360156 58.8729 0.160156 59.9395 0.160156C62.8995 0.160156 64.3795 1.74682 64.3795 4.92016V12.1202H72.2195Z" fill="#FF5800"/>
</svg>
