<svg width="28" height="28" viewBox="0 0 28 28" fill="none" xmlns="http://www.w3.org/2000/svg">
<path d="M13.9993 0.666992C15.7675 0.666992 17.4632 1.36937 18.7134 2.61961C19.9636 3.86986 20.666 5.56555 20.666 7.33366C20.666 9.10177 19.9636 10.7975 18.7134 12.0477C17.4632 13.2979 15.7675 14.0003 13.9993 14.0003C12.2312 14.0003 10.5355 13.2979 9.2853 12.0477C8.03506 10.7975 7.33268 9.10177 7.33268 7.33366C7.33268 5.56555 8.03506 3.86986 9.2853 2.61961C10.5355 1.36937 12.2312 0.666992 13.9993 0.666992ZM13.9993 17.3337C21.366 17.3337 27.3327 20.317 27.3327 24.0003V27.3337H0.666016V24.0003C0.666016 20.317 6.63268 17.3337 13.9993 17.3337Z" fill="#FF5800"/>
</svg>
