<svg width="20" height="20" viewBox="0 0 20 20" fill="none" xmlns="http://www.w3.org/2000/svg">
<path d="M9.99935 9.58366C9.44681 9.58366 8.91691 9.36417 8.52621 8.97346C8.13551 8.58276 7.91602 8.05286 7.91602 7.50033C7.91602 6.94779 8.13551 6.41789 8.52621 6.02719C8.91691 5.63649 9.44681 5.41699 9.99935 5.41699C10.5519 5.41699 11.0818 5.63649 11.4725 6.02719C11.8632 6.41789 12.0827 6.94779 12.0827 7.50033C12.0827 7.77391 12.0288 8.04482 11.9241 8.29758C11.8194 8.55034 11.6659 8.78001 11.4725 8.97346C11.279 9.16692 11.0494 9.32038 10.7966 9.42507C10.5438 9.52977 10.2729 9.58366 9.99935 9.58366ZM9.99935 1.66699C8.45225 1.66699 6.96852 2.28157 5.87456 3.37554C4.7806 4.4695 4.16602 5.95323 4.16602 7.50033C4.16602 11.8753 9.99935 18.3337 9.99935 18.3337C9.99935 18.3337 15.8327 11.8753 15.8327 7.50033C15.8327 5.95323 15.2181 4.4695 14.1241 3.37554C13.0302 2.28157 11.5464 1.66699 9.99935 1.66699Z" fill="#363636"/>
</svg>
