<svg width="30" height="30" viewBox="0 0 30 30" fill="none" xmlns="http://www.w3.org/2000/svg">
<path d="M13.1673 3.99961C11.7685 3.99961 10.4632 4.39011 9.35032 5.07028C9.2353 4.45503 9.02564 3.86132 8.72882 3.31028C10.1245 2.53789 11.6976 2.14309 13.2927 2.1649C14.8877 2.18672 16.4494 2.62438 17.8235 3.43464C19.1975 4.2449 20.3364 5.3997 21.1274 6.78491C21.9185 8.17012 22.3344 9.73779 22.334 11.333H26.9192C27.6482 11.3334 28.3472 11.6234 28.8625 12.1391C29.3778 12.6547 29.6673 13.3539 29.6673 14.083V25.083C29.6673 25.8123 29.3776 26.5118 28.8619 27.0275C28.3461 27.5433 27.6467 27.833 26.9173 27.833H15.9173C15.188 27.833 14.4885 27.5433 13.9728 27.0275C13.457 26.5118 13.1673 25.8123 13.1673 25.083V20.4997C11.892 20.5013 10.6305 20.2358 9.46398 19.7205C9.48782 19.0971 9.50065 18.4426 9.50065 17.7496V17.6855C10.5787 18.3088 11.8308 18.6663 13.1673 18.6663V14.083C13.1673 13.3536 13.457 12.6541 13.9728 12.1384C14.4885 11.6227 15.188 11.333 15.9173 11.333H20.5007C20.5007 9.38804 19.728 7.52277 18.3528 6.1475C16.9775 4.77223 15.1122 3.99961 13.1673 3.99961ZM22.1507 13.1663C21.79 14.9273 20.9202 16.5437 19.6491 17.8148C18.3781 19.0859 16.7617 19.9557 15.0007 20.3163V25.083C15.0007 25.3261 15.0972 25.5593 15.2691 25.7312C15.441 25.9031 15.6742 25.9997 15.9173 25.9997H26.9173C27.1604 25.9997 27.3936 25.9031 27.5655 25.7312C27.7374 25.5593 27.834 25.3261 27.834 25.083V14.083C27.834 13.8399 27.7374 13.6067 27.5655 13.4348C27.3936 13.2629 27.1604 13.1663 26.9173 13.1663H22.1507ZM20.2697 13.1663H15.9173C15.6742 13.1663 15.441 13.2629 15.2691 13.4348C15.0972 13.6067 15.0007 13.8399 15.0007 14.083V18.4353C16.269 18.1067 17.4263 17.4449 18.3528 16.5184C19.2792 15.592 19.9411 14.4346 20.2697 13.1663ZM5.06582 0.562102C5.21799 0.695205 5.32189 0.874883 5.36135 1.07317C5.40081 1.27145 5.37361 1.47722 5.28398 1.65844C5.26846 1.71207 5.26044 1.7676 5.26015 1.82344C5.26015 1.93894 5.28948 2.15894 5.56632 2.43394C5.70015 2.56777 5.80282 2.66311 5.91465 2.76761C6.00632 2.85194 6.10349 2.93994 6.22632 3.06094C6.46465 3.28828 6.71582 3.55594 6.94132 3.89144C7.40882 4.59361 7.66732 5.47178 7.66732 6.74962C7.66732 8.31345 7.08798 9.64629 6.18415 10.464L6.30148 10.5996C6.81482 11.2303 7.11365 12.048 7.30065 12.8546C7.66732 14.4496 7.66732 16.3673 7.66732 17.7038V17.7496C7.66732 22.8592 6.97248 25.7577 6.20798 27.415C5.82298 28.2492 5.41415 28.7808 5.06032 29.1145C4.91646 29.2525 4.75784 29.3743 4.58732 29.4775C4.50924 29.5245 4.42773 29.5656 4.34348 29.6003C4.34348 29.6003 4.13632 29.6663 4.00065 29.6663C3.86498 29.6663 3.65782 29.6003 3.65782 29.6003C3.57266 29.5676 3.49097 29.5265 3.41398 29.4775C3.24346 29.3743 3.08484 29.2525 2.94098 29.1145C2.58715 28.779 2.17832 28.2492 1.79332 27.415C1.02882 25.7577 0.333984 22.8592 0.333984 17.7496V17.7038C0.333984 16.3655 0.333984 14.4496 0.700651 12.8546C0.887651 12.048 1.18648 11.2303 1.69982 10.5996C1.73648 10.5538 1.77682 10.508 1.81715 10.464C0.913318 9.64629 0.333984 8.31345 0.333984 6.74962C0.333984 6.15195 0.493484 5.43878 0.713484 4.78061C0.933484 4.12061 1.24148 3.43861 1.59715 2.88861C2.02065 2.17361 2.61648 1.5741 3.07848 1.17077C3.33177 0.948012 3.59611 0.738136 3.87048 0.541935L3.92548 0.505268L3.94198 0.492435L3.94748 0.488768L3.95115 0.486935C4.11926 0.374875 4.31968 0.321492 4.52126 0.335086C4.72284 0.348679 4.91428 0.428486 5.06582 0.562102ZM4.00065 9.49962C4.71015 9.49779 5.83398 8.71129 5.83398 6.74962C5.83398 5.73578 5.63415 5.23895 5.41415 4.90895C5.28039 4.7162 5.1261 4.53855 4.95398 4.37911L4.72665 4.16644C4.57815 4.02711 4.40398 3.86578 4.26832 3.73194C4.0678 3.53352 3.89568 3.30833 3.75682 3.06277C3.52345 3.30815 3.31808 3.5787 3.14448 3.86944C2.88782 4.26361 2.63848 4.80445 2.45332 5.36178C2.26265 5.93012 2.16732 6.43245 2.16732 6.74962C2.16732 8.71496 3.29482 9.49962 4.00065 9.49962ZM3.12065 11.7583C2.86032 12.0755 2.64398 12.5815 2.48632 13.2671C2.17098 14.6385 2.16732 16.3618 2.16732 17.7496C2.16732 22.7235 2.84748 25.325 3.45798 26.6468C3.65965 27.0813 3.84848 27.371 4.00065 27.5635C4.21726 27.2806 4.39943 26.9728 4.54332 26.6468C5.15382 25.325 5.83398 22.7235 5.83398 17.7496C5.83398 16.3618 5.83032 14.6385 5.51315 13.2671C5.35548 12.5815 5.13915 12.0755 4.88065 11.7583C4.77953 11.6213 4.64656 11.5109 4.49323 11.4368C4.33991 11.3627 4.17084 11.3271 4.00065 11.333H3.99698C3.82738 11.3275 3.65899 11.3634 3.50633 11.4375C3.35367 11.5116 3.22131 11.6217 3.12065 11.7583Z" fill="#FF5800"/>
</svg>
