<svg width="40" height="40" viewBox="0 0 40 40" fill="none" xmlns="http://www.w3.org/2000/svg">
<path d="M5 15.6667V6C5 5.73478 5.10536 5.48043 5.29289 5.29289C5.48043 5.10536 5.73478 5 6 5H34C34.2652 5 34.5196 5.10536 34.7071 5.29289C34.8946 5.48043 35 5.73478 35 6V15.6667C35 15.9319 34.8946 16.1862 34.7071 16.3738C34.5196 16.5613 34.2652 16.6667 34 16.6667H6C5.73478 16.6667 5.48043 16.5613 5.29289 16.3738C5.10536 16.1862 5 15.9319 5 15.6667ZM23.3333 34V24.3333C23.3333 24.0681 23.4387 23.8138 23.6262 23.6262C23.8138 23.4387 24.0681 23.3333 24.3333 23.3333H34C34.2652 23.3333 34.5196 23.4387 34.7071 23.6262C34.8946 23.8138 35 24.0681 35 24.3333V34C35 34.2652 34.8946 34.5196 34.7071 34.7071C34.5196 34.8946 34.2652 35 34 35H24.3333C24.0681 35 23.8138 34.8946 23.6262 34.7071C23.4387 34.5196 23.3333 34.2652 23.3333 34ZM5 34V24.3333C5 24.0681 5.10536 23.8138 5.29289 23.6262C5.48043 23.4387 5.73478 23.3333 6 23.3333H15.6667C15.9319 23.3333 16.1862 23.4387 16.3738 23.6262C16.5613 23.8138 16.6667 24.0681 16.6667 24.3333V34C16.6667 34.2652 16.5613 34.5196 16.3738 34.7071C16.1862 34.8946 15.9319 35 15.6667 35H6C5.73478 35 5.48043 34.8946 5.29289 34.7071C5.10536 34.5196 5 34.2652 5 34Z" stroke="#FF5800" stroke-width="2.5"/>
</svg>
