<svg width="28" height="34" viewBox="0 0 28 34" fill="none" xmlns="http://www.w3.org/2000/svg">
<path d="M23.9993 33.6663C24.8834 33.6663 25.7312 33.3152 26.3564 32.69C26.9815 32.0649 27.3327 31.2171 27.3327 30.333V3.66634C27.3327 2.78229 26.9815 1.93444 26.3564 1.30932C25.7312 0.684197 24.8834 0.333008 23.9993 0.333008H13.9993V11.9997L9.83268 9.49967L5.66602 11.9997V0.333008H3.99935C3.11529 0.333008 2.26745 0.684197 1.64233 1.30932C1.0172 1.93444 0.666016 2.78229 0.666016 3.66634V30.333C0.666016 31.2171 1.0172 32.0649 1.64233 32.69C2.26745 33.3152 3.11529 33.6663 3.99935 33.6663H23.9993Z" fill="#FF5800"/>
</svg>
