<svg width="20" height="20" viewBox="0 0 20 20" fill="none" xmlns="http://www.w3.org/2000/svg">
<path d="M4.37435 3.33398H15.6243C16.3161 3.33394 16.9817 3.59861 17.4845 4.07371C17.9874 4.54881 18.2894 5.19831 18.3285 5.88898L18.3327 6.04232V13.959C18.3327 14.6508 18.0681 15.3163 17.593 15.8192C17.1179 16.322 16.4684 16.624 15.7777 16.6632L15.6243 16.6673H4.37435C3.68257 16.6674 3.01699 16.4027 2.51416 15.9276C2.01132 15.4525 1.70935 14.803 1.67018 14.1123L1.66602 13.959V6.04232C1.66597 5.35054 1.93064 4.68496 2.40574 4.18213C2.88084 3.67929 3.53034 3.37732 4.22102 3.33815L4.37435 3.33398ZM17.0827 7.81148L10.291 11.3865C10.2143 11.427 10.13 11.4511 10.0435 11.4573C9.95702 11.4634 9.87018 11.4515 9.78852 11.4223L9.70852 11.3873L2.91602 7.81232V13.959C2.91603 14.325 3.05366 14.6776 3.30158 14.9468C3.54951 15.216 3.8896 15.3822 4.25435 15.4123L4.37435 15.4173H15.6243C15.9905 15.4173 16.3432 15.2795 16.6124 15.0314C16.8817 14.7833 17.0478 14.443 17.0777 14.0781L17.0827 13.959V7.81148ZM15.6243 4.58398H4.37435C4.00836 4.584 3.65575 4.72163 3.38652 4.96955C3.1173 5.21747 2.95113 5.55757 2.92102 5.92232L2.91602 6.04232V6.39982L9.99935 10.1273L17.0827 6.39898V6.04232C17.0827 5.67619 16.9449 5.32348 16.6968 5.05423C16.4487 4.78498 16.1084 4.6189 15.7435 4.58898L15.6243 4.58398Z" fill="#FF5800"/>
</svg>
