<svg width="20" height="20" viewBox="0 0 20 20" fill="none" xmlns="http://www.w3.org/2000/svg">
<path d="M16.2493 2.5C16.6914 2.5 17.1153 2.67559 17.4279 2.98816C17.7404 3.30072 17.916 3.72464 17.916 4.16667V15.8333C17.916 16.2754 17.7404 16.6993 17.4279 17.0118C17.1153 17.3244 16.6914 17.5 16.2493 17.5H4.58268C4.14065 17.5 3.71673 17.3244 3.40417 17.0118C3.09161 16.6993 2.91602 16.2754 2.91602 15.8333V4.16667C2.91602 3.72464 3.09161 3.30072 3.40417 2.98816C3.71673 2.67559 4.14065 2.5 4.58268 2.5H16.2493ZM15.8327 15.4167V11C15.8327 10.2795 15.5465 9.5885 15.037 9.07903C14.5275 8.56955 13.8365 8.28333 13.116 8.28333C12.4077 8.28333 11.5827 8.71667 11.1827 9.36667V8.44167H8.85768V15.4167H11.1827V11.3083C11.1827 10.6667 11.6993 10.1417 12.341 10.1417C12.6504 10.1417 12.9472 10.2646 13.166 10.4834C13.3848 10.7022 13.5077 10.9989 13.5077 11.3083V15.4167H15.8327ZM6.14935 7.13333C6.52065 7.13333 6.87675 6.98583 7.1393 6.72328C7.40185 6.46073 7.54935 6.10464 7.54935 5.73333C7.54935 4.95833 6.92435 4.325 6.14935 4.325C5.77584 4.325 5.41762 4.47338 5.15351 4.73749C4.88939 5.0016 4.74102 5.35982 4.74102 5.73333C4.74102 6.50833 5.37435 7.13333 6.14935 7.13333ZM7.30768 15.4167V8.44167H4.99935V15.4167H7.30768Z" fill="#FF5800"/>
</svg>
