<svg width="20" height="20" viewBox="0 0 20 20" fill="none" xmlns="http://www.w3.org/2000/svg">
<path d="M5.65618 1.88968L6.8419 1.53254C7.38165 1.3697 7.96222 1.40885 8.47522 1.64267C8.98823 1.8765 9.39861 2.28903 9.62975 2.80325L10.3676 4.44468C10.5664 4.88687 10.6218 5.38021 10.526 5.85547C10.4302 6.33074 10.188 6.76408 9.83332 7.09468L8.54404 8.29682C8.52811 8.3117 8.51503 8.32938 8.50547 8.34897C8.37047 8.62468 8.57547 9.36111 9.21761 10.474C9.9419 11.7283 10.5012 12.224 10.7605 12.1475L12.4526 11.6297C12.916 11.4882 13.4121 11.4952 13.8713 11.6498C14.3305 11.8044 14.7299 12.0988 15.0133 12.4918L16.0619 13.944C16.3911 14.3999 16.5436 14.9599 16.491 15.5198C16.4385 16.0797 16.1845 16.6015 15.7762 16.9883L14.874 17.8418C14.5603 18.139 14.1794 18.3558 13.7637 18.4739C13.348 18.5919 12.91 18.6076 12.4869 18.5197C9.97475 17.9968 7.72404 15.974 5.71547 12.4954C3.70618 9.01468 3.07975 6.05039 3.8869 3.61254C4.02201 3.2044 4.25338 2.83478 4.56145 2.53491C4.86953 2.23504 5.24454 2.01373 5.65618 1.88968ZM5.96618 2.91539C5.71919 2.98979 5.49373 3.12254 5.30886 3.30244C5.12399 3.48234 4.98514 3.70409 4.90404 3.94897C4.20832 6.04968 4.7719 8.71825 6.64332 11.9597C8.51332 15.199 10.5405 17.0204 12.7048 17.4704C12.9587 17.5232 13.2217 17.5137 13.4712 17.4428C13.7207 17.3719 13.9494 17.2417 14.1376 17.0633L15.039 16.2104C15.259 16.0022 15.3958 15.7212 15.4242 15.4197C15.4526 15.1182 15.3705 14.8167 15.1933 14.5711L14.1448 13.1183C13.9921 12.9067 13.7772 12.7482 13.53 12.6649C13.2827 12.5817 13.0157 12.5778 12.7662 12.654L11.0698 13.1733C10.1312 13.4525 9.24832 12.6704 8.28975 11.009C7.47761 9.60325 7.19618 8.58754 7.54332 7.87825C7.61047 7.74111 7.7019 7.61754 7.81332 7.51325L9.10261 6.31111C9.29364 6.13309 9.42413 5.89973 9.47575 5.64377C9.52738 5.38781 9.49756 5.12211 9.39047 4.88397L8.65261 3.24325C8.52815 2.96629 8.30713 2.74411 8.03084 2.61818C7.75454 2.49226 7.44186 2.47121 7.15118 2.55897L5.96547 2.91611L5.96618 2.91539Z" fill="#FF5800"/>
</svg>
