<svg width="32" height="30" viewBox="0 0 32 30" fill="none" xmlns="http://www.w3.org/2000/svg">
<path d="M13.0783 29.7533C16.0457 28.5863 15.3955 25.3688 13.8952 23.335C12.4114 21.2511 10.3609 19.8174 8.2937 18.4337C6.81874 17.5041 5.5018 16.3447 4.39268 14.9995C3.9259 14.4493 2.97565 13.4324 3.94257 13.2324C4.92616 13.0323 6.6266 13.9992 7.49349 14.366C9.01055 14.9995 10.5109 15.733 11.9113 16.5999L13.5951 13.7658C10.9944 12.0487 7.6602 10.5317 4.55939 10.0815C2.79227 9.8148 0.925116 10.1816 0.32496 12.0987C-0.208512 13.7492 0.641709 15.4163 1.60863 16.7166C3.89255 19.7674 7.44348 21.2344 10.0942 23.8685C10.661 24.4186 11.3445 25.0688 11.6779 25.8356C12.028 26.5692 11.9447 26.6192 11.1611 26.6192C9.09391 26.6192 6.5099 25.0021 4.82613 23.9351L3.14236 26.7692C5.69302 28.3363 9.9608 30.7869 13.0783 29.7533ZM31.5664 3.74655C31.9332 3.37979 31.9332 2.77963 31.5664 2.42954L29.3992 0.262314C29.2246 0.0940281 28.9915 0 28.749 0C28.5065 0 28.2735 0.0940281 28.0989 0.262314L26.3984 1.96276L29.866 5.43032M15.1622 13.199V16.6666H18.6297L28.8824 6.41391L25.4148 2.94634L15.1622 13.199Z" fill="#FF5800"/>
</svg>
