<svg width="34" height="34" viewBox="0 0 34 34" fill="none" xmlns="http://www.w3.org/2000/svg">
<path d="M16.1673 30.334L24.2673 14.1173H18.6673V3.66732L10.334 19.884H16.1673V30.334ZM17.0007 0.333984C21.584 0.333984 25.5006 2.00065 28.7506 5.25065C32.0006 8.50065 33.6673 12.4173 33.6673 17.0007C33.6673 21.584 32.0006 25.5006 28.7506 28.7506C25.5006 32.0006 21.584 33.6673 17.0007 33.6673C12.4173 33.6673 8.50065 32.0006 5.25065 28.7506C2.00065 25.5006 0.333984 21.584 0.333984 17.0007C0.333984 12.4173 2.00065 8.50065 5.25065 5.25065C8.50065 2.00065 12.4173 0.333984 17.0007 0.333984Z" fill="#FF5800"/>
</svg>
