<svg width="114" height="147" viewBox="0 0 114 147" fill="none" xmlns="http://www.w3.org/2000/svg">
<rect x="1.25" y="0.5" width="112" height="112" rx="9.5" fill="#04143B" stroke="#666666"/>
<path d="M30.127 139.993L30.939 136.962H28.09L28.349 135.975H31.205L31.8 133.728H28.951L29.217 132.741H32.073L32.822 129.92H33.851L33.088 132.741H35.433L36.182 129.92H37.211L36.448 132.741H39.297L39.031 133.728H36.189L35.58 135.975H38.429L38.163 136.962H35.321L34.509 139.993H33.487L34.292 136.962H31.961L31.149 139.993H30.127ZM32.227 135.975H34.565L35.16 133.728H32.829L32.227 135.975ZM44.4126 140.21C43.7919 140.21 43.2319 140.065 42.7326 139.776C42.2379 139.487 41.8459 139.095 41.5566 138.6C41.2672 138.101 41.1226 137.541 41.1226 136.92V133C41.1226 132.379 41.2672 131.822 41.5566 131.327C41.8459 130.828 42.2379 130.433 42.7326 130.144C43.2319 129.855 43.7919 129.71 44.4126 129.71C45.0332 129.71 45.5909 129.855 46.0856 130.144C46.5849 130.433 46.9792 130.828 47.2686 131.327C47.5579 131.822 47.7026 132.379 47.7026 133V136.92C47.7026 137.541 47.5579 138.101 47.2686 138.6C46.9792 139.095 46.5849 139.487 46.0856 139.776C45.5909 140.065 45.0332 140.21 44.4126 140.21ZM44.4126 139.216C44.8279 139.216 45.2059 139.116 45.5466 138.915C45.8872 138.71 46.1579 138.437 46.3586 138.096C46.5592 137.755 46.6596 137.38 46.6596 136.969V132.951C46.6596 132.536 46.5592 132.158 46.3586 131.817C46.1579 131.476 45.8872 131.206 45.5466 131.005C45.2059 130.8 44.8279 130.697 44.4126 130.697C43.9972 130.697 43.6192 130.8 43.2786 131.005C42.9379 131.206 42.6672 131.476 42.4666 131.817C42.2659 132.158 42.1656 132.536 42.1656 132.951V136.969C42.1656 137.38 42.2659 137.755 42.4666 138.096C42.6672 138.437 42.9379 138.71 43.2786 138.915C43.6192 139.116 43.9972 139.216 44.4126 139.216ZM54.1055 140V138.047H49.3875V137.067L52.7615 129.92H53.9165L50.5425 137.067H54.1055V134.127H55.1415V137.067H56.2405V138.047H55.1415V140H54.1055ZM59.6823 140V131.068L57.7853 132.209V131.054L59.6823 129.92H60.7253V140H59.6823ZM67.8184 140V138.047H63.1004V137.067L66.4744 129.92H67.6294L64.2554 137.067H67.8184V134.127H68.8544V137.067H69.9534V138.047H68.8544V140H67.8184ZM74.3472 140.203C73.8479 140.203 73.3882 140.114 72.9682 139.937C72.5482 139.76 72.1865 139.508 71.8832 139.181C71.5799 138.85 71.3582 138.455 71.2182 137.998L72.1982 137.704C72.3662 138.203 72.6415 138.581 73.0242 138.838C73.4115 139.095 73.8479 139.218 74.3332 139.209C74.7812 139.2 75.1662 139.099 75.4882 138.908C75.8149 138.717 76.0645 138.451 76.2372 138.11C76.4099 137.769 76.4962 137.375 76.4962 136.927C76.4962 136.241 76.2955 135.69 75.8942 135.275C75.4975 134.855 74.9725 134.645 74.3192 134.645C74.1372 134.645 73.9459 134.671 73.7452 134.722C73.5445 134.769 73.3579 134.836 73.1852 134.925L72.6672 134.106L76.5872 130.487L76.7552 130.907H71.6172V129.92H77.4412V130.921L74.0252 134.183L74.0112 133.777C74.7112 133.688 75.3272 133.768 75.8592 134.015C76.3912 134.262 76.8065 134.64 77.1052 135.149C77.4085 135.653 77.5602 136.246 77.5602 136.927C77.5602 137.571 77.4202 138.14 77.1402 138.635C76.8649 139.125 76.4845 139.51 75.9992 139.79C75.5139 140.065 74.9632 140.203 74.3472 140.203ZM79.3765 140V129.92H83.2685C83.8332 129.92 84.3255 130.037 84.7455 130.27C85.1655 130.503 85.4922 130.818 85.7255 131.215C85.9588 131.607 86.0755 132.041 86.0755 132.517C86.0755 133.058 85.9308 133.541 85.6415 133.966C85.3522 134.386 84.9648 134.678 84.4795 134.841L84.4655 134.498C85.1188 134.685 85.6322 135.011 86.0055 135.478C86.3788 135.945 86.5655 136.509 86.5655 137.172C86.5655 137.755 86.4418 138.259 86.1945 138.684C85.9472 139.104 85.5995 139.428 85.1515 139.657C84.7035 139.886 84.1832 140 83.5905 140H79.3765ZM80.4125 139.013H83.3385C83.7492 139.013 84.1178 138.941 84.4445 138.796C84.7712 138.647 85.0278 138.437 85.2145 138.166C85.4058 137.895 85.5015 137.569 85.5015 137.186C85.5015 136.813 85.4152 136.477 85.2425 136.178C85.0698 135.879 84.8342 135.641 84.5355 135.464C84.2415 135.282 83.9055 135.191 83.5275 135.191H80.4125V139.013ZM80.4125 134.218H83.2615C83.5835 134.218 83.8775 134.146 84.1435 134.001C84.4095 133.852 84.6195 133.649 84.7735 133.392C84.9322 133.135 85.0115 132.839 85.0115 132.503C85.0115 132.027 84.8458 131.64 84.5145 131.341C84.1878 131.042 83.7702 130.893 83.2615 130.893H80.4125V134.218Z" fill="#363636"/>
</svg>
