<svg width="114" height="147" viewBox="0 0 114 147" fill="none" xmlns="http://www.w3.org/2000/svg">
<rect x="1" y="0.5" width="112" height="112" rx="9.5" fill="#2A87FD" stroke="#666666"/>
<path d="M28.877 139.993L29.689 136.962H26.84L27.099 135.975H29.955L30.55 133.728H27.701L27.967 132.741H30.823L31.572 129.92H32.601L31.838 132.741H34.183L34.932 129.92H35.961L35.198 132.741H38.047L37.781 133.728H34.939L34.33 135.975H37.179L36.913 136.962H34.071L33.259 139.993H32.237L33.042 136.962H30.711L29.899 139.993H28.877ZM30.977 135.975H33.315L33.91 133.728H31.579L30.977 135.975ZM39.5926 139.993L39.5996 139.055L44.1566 134.939C44.5486 134.584 44.8076 134.248 44.9336 133.931C45.0642 133.609 45.1296 133.273 45.1296 132.923C45.1296 132.508 45.0316 132.132 44.8356 131.796C44.6396 131.46 44.3759 131.194 44.0446 130.998C43.7132 130.797 43.3422 130.697 42.9316 130.697C42.5022 130.697 42.1196 130.8 41.7836 131.005C41.4476 131.21 41.1816 131.481 40.9856 131.817C40.7942 132.153 40.7009 132.519 40.7056 132.916H39.6556C39.6556 132.305 39.8002 131.756 40.0896 131.271C40.3789 130.786 40.7709 130.405 41.2656 130.13C41.7602 129.85 42.3202 129.71 42.9456 129.71C43.5569 129.71 44.1052 129.855 44.5906 130.144C45.0806 130.429 45.4656 130.816 45.7456 131.306C46.0302 131.791 46.1726 132.333 46.1726 132.93C46.1726 133.35 46.1212 133.721 46.0186 134.043C45.9206 134.36 45.7642 134.657 45.5496 134.932C45.3396 135.203 45.0712 135.483 44.7446 135.772L40.6986 139.426L40.5376 139.006H46.1726V139.993H39.5926ZM46.8835 140L50.3555 129.92H51.7205L55.1925 140H54.1215L50.8245 130.494H51.2305L47.9545 140H46.8835ZM48.4305 137.557V136.591H53.6385V137.557H48.4305ZM59.5296 140.21C58.8996 140.21 58.3419 140.084 57.8566 139.832C57.3759 139.58 56.9979 139.228 56.7226 138.775C56.4519 138.318 56.3166 137.783 56.3166 137.172C56.3166 136.547 56.4682 135.991 56.7716 135.506C57.0749 135.016 57.5369 134.645 58.1576 134.393L58.1436 134.799C57.6256 134.608 57.2312 134.295 56.9606 133.861C56.6899 133.427 56.5546 132.946 56.5546 132.419C56.5546 131.859 56.6829 131.378 56.9396 130.977C57.1962 130.571 57.5462 130.258 57.9896 130.039C58.4376 129.82 58.9509 129.71 59.5296 129.71C60.1082 129.71 60.6216 129.82 61.0696 130.039C61.5176 130.258 61.8699 130.571 62.1266 130.977C62.3832 131.378 62.5116 131.859 62.5116 132.419C62.5116 132.946 62.3809 133.425 62.1196 133.854C61.8629 134.283 61.4686 134.598 60.9366 134.799L60.9016 134.393C61.5222 134.64 61.9866 135.009 62.2946 135.499C62.6072 135.989 62.7636 136.547 62.7636 137.172C62.7636 137.783 62.6259 138.318 62.3506 138.775C62.0752 139.228 61.6949 139.58 61.2096 139.832C60.7242 140.084 60.1642 140.21 59.5296 140.21ZM59.5296 139.223C60.1642 139.223 60.6799 139.048 61.0766 138.698C61.4732 138.343 61.6716 137.835 61.6716 137.172C61.6716 136.5 61.4756 135.991 61.0836 135.646C60.6916 135.296 60.1736 135.121 59.5296 135.121C58.8856 135.121 58.3699 135.296 57.9826 135.646C57.5952 135.991 57.4016 136.5 57.4016 137.172C57.4016 137.835 57.5976 138.343 57.9896 138.698C58.3816 139.048 58.8949 139.223 59.5296 139.223ZM59.5296 134.127C60.0896 134.127 60.5446 133.985 60.8946 133.7C61.2446 133.411 61.4196 132.984 61.4196 132.419C61.4196 131.854 61.2446 131.432 60.8946 131.152C60.5446 130.867 60.0896 130.725 59.5296 130.725C58.9696 130.725 58.5146 130.867 58.1646 131.152C57.8192 131.432 57.6466 131.854 57.6466 132.419C57.6466 132.984 57.8192 133.411 58.1646 133.7C58.5146 133.985 58.9696 134.127 59.5296 134.127ZM65.1167 140L68.8267 130.921H64.1577V129.92H69.9257V130.921L66.2227 140H65.1167ZM71.605 140V129.92H77.394V130.949H72.634V134.449H76.554V135.471H72.634V140H71.605ZM78.6597 140V129.92H81.7187C81.826 129.92 82.008 129.922 82.2647 129.927C82.526 129.932 82.7757 129.95 83.0137 129.983C83.779 130.09 84.4184 130.375 84.9317 130.837C85.445 131.299 85.83 131.887 86.0867 132.601C86.3434 133.315 86.4717 134.101 86.4717 134.96C86.4717 135.819 86.3434 136.605 86.0867 137.319C85.83 138.033 85.445 138.621 84.9317 139.083C84.4184 139.545 83.779 139.83 83.0137 139.937C82.7804 139.965 82.5307 139.984 82.2647 139.993C81.9987 139.998 81.8167 140 81.7187 140H78.6597ZM79.7237 139.013H81.7187C81.91 139.013 82.1154 139.008 82.3347 138.999C82.5587 138.985 82.75 138.962 82.9087 138.929C83.4967 138.826 83.9704 138.588 84.3297 138.215C84.6937 137.842 84.9597 137.375 85.1277 136.815C85.2957 136.25 85.3797 135.632 85.3797 134.96C85.3797 134.283 85.2957 133.663 85.1277 133.098C84.9597 132.533 84.6937 132.067 84.3297 131.698C83.9657 131.329 83.492 131.094 82.9087 130.991C82.75 130.958 82.5564 130.937 82.3277 130.928C82.1037 130.914 81.9007 130.907 81.7187 130.907H79.7237V139.013Z" fill="#363636"/>
</svg>
