<svg width="114" height="147" viewBox="0 0 114 147" fill="none" xmlns="http://www.w3.org/2000/svg">
<rect x="0.75" y="0.5" width="112" height="112" rx="9.5" fill="#AACFFE" stroke="#666666"/>
<path d="M28.127 139.993L28.939 136.962H26.09L26.349 135.975H29.205L29.8 133.728H26.951L27.217 132.741H30.073L30.822 129.92H31.851L31.088 132.741H33.433L34.182 129.92H35.211L34.448 132.741H37.297L37.031 133.728H34.189L33.58 135.975H36.429L36.163 136.962H33.321L32.509 139.993H31.487L32.292 136.962H29.961L29.149 139.993H28.127ZM30.227 135.975H32.565L33.16 133.728H30.829L30.227 135.975ZM38.4226 140L41.8946 129.92H43.2596L46.7316 140H45.6606L42.3636 130.494H42.7696L39.4936 140H38.4226ZM39.9696 137.557V136.591H45.1776V137.557H39.9696ZM47.8152 140L51.2872 129.92H52.6522L56.1242 140H55.0532L51.7562 130.494H52.1622L48.8862 140H47.8152ZM49.3622 137.557V136.591H54.5702V137.557H49.3622ZM61.1958 140.21C60.1924 140.21 59.3454 139.988 58.6548 139.545C57.9641 139.097 57.4414 138.479 57.0868 137.69C56.7321 136.901 56.5548 135.991 56.5548 134.96C56.5548 133.929 56.7321 133.019 57.0868 132.23C57.4414 131.441 57.9641 130.825 58.6548 130.382C59.3454 129.934 60.1924 129.71 61.1958 129.71C62.3671 129.71 63.3238 130.011 64.0658 130.613C64.8078 131.21 65.3164 132.013 65.5918 133.021L64.5418 133.294C64.3271 132.496 63.9421 131.864 63.3868 131.397C62.8314 130.93 62.1011 130.697 61.1958 130.697C60.4071 130.697 59.7514 130.877 59.2288 131.236C58.7061 131.595 58.3118 132.097 58.0458 132.741C57.7844 133.38 57.6491 134.12 57.6398 134.96C57.6351 135.8 57.7634 136.54 58.0248 137.179C58.2908 137.818 58.6874 138.32 59.2148 138.684C59.7468 139.043 60.4071 139.223 61.1958 139.223C62.1011 139.223 62.8314 138.99 63.3868 138.523C63.9421 138.052 64.3271 137.419 64.5418 136.626L65.5918 136.899C65.3164 137.907 64.8078 138.712 64.0658 139.314C63.3238 139.911 62.3671 140.21 61.1958 140.21ZM67.1363 140V129.92H72.9253V130.949H68.1653V134.449H72.0853V135.471H68.1653V140H67.1363ZM74.1909 140V129.92H79.9799V130.949H75.2199V134.449H79.1399V135.471H75.2199V140H74.1909ZM81.2456 140V129.92H87.5456V130.907H82.2746V134.393H86.7056V135.38H82.2746V139.013H87.5456V140H81.2456Z" fill="#363636"/>
</svg>
