<svg width="113" height="147" viewBox="0 0 113 147" fill="none" xmlns="http://www.w3.org/2000/svg">
<rect x="0.5" y="0.5" width="112" height="112" rx="9.5" fill="#EBF4FB" stroke="#666666"/>
<path d="M28.877 139.993L29.689 136.962H26.84L27.099 135.975H29.955L30.55 133.728H27.701L27.967 132.741H30.823L31.572 129.92H32.601L31.838 132.741H34.183L34.932 129.92H35.961L35.198 132.741H38.047L37.781 133.728H34.939L34.33 135.975H37.179L36.913 136.962H34.071L33.259 139.993H32.237L33.042 136.962H30.711L29.899 139.993H28.877ZM30.977 135.975H33.315L33.91 133.728H31.579L30.977 135.975ZM39.8726 140V129.92H46.1726V130.907H40.9016V134.393H45.3326V135.38H40.9016V139.013H46.1726V140H39.8726ZM47.857 140V129.92H51.749C52.3136 129.92 52.806 130.037 53.226 130.27C53.646 130.503 53.9726 130.818 54.206 131.215C54.4393 131.607 54.556 132.041 54.556 132.517C54.556 133.058 54.4113 133.541 54.122 133.966C53.8326 134.386 53.4453 134.678 52.96 134.841L52.946 134.498C53.5993 134.685 54.1126 135.011 54.486 135.478C54.8593 135.945 55.046 136.509 55.046 137.172C55.046 137.755 54.9223 138.259 54.675 138.684C54.4276 139.104 54.08 139.428 53.632 139.657C53.184 139.886 52.6636 140 52.071 140H47.857ZM48.893 139.013H51.819C52.2296 139.013 52.5983 138.941 52.925 138.796C53.2516 138.647 53.5083 138.437 53.695 138.166C53.8863 137.895 53.982 137.569 53.982 137.186C53.982 136.813 53.8956 136.477 53.723 136.178C53.5503 135.879 53.3146 135.641 53.016 135.464C52.722 135.282 52.386 135.191 52.008 135.191H48.893V139.013ZM48.893 134.218H51.742C52.064 134.218 52.358 134.146 52.624 134.001C52.89 133.852 53.1 133.649 53.254 133.392C53.4126 133.135 53.492 132.839 53.492 132.503C53.492 132.027 53.3263 131.64 52.995 131.341C52.6683 131.042 52.2506 130.893 51.742 130.893H48.893V134.218ZM56.4429 140V129.92H62.2319V130.949H57.4719V134.449H61.3919V135.471H57.4719V140H56.4429ZM67.7989 140V138.047H63.0809V137.067L66.4549 129.92H67.6099L64.2359 137.067H67.7989V134.127H68.8349V137.067H69.9339V138.047H68.8349V140H67.7989ZM71.6187 140V129.92H77.4077V130.949H72.6477V134.449H76.5677V135.471H72.6477V140H71.6187ZM78.6734 140V129.92H82.5654C83.13 129.92 83.6224 130.037 84.0424 130.27C84.4624 130.503 84.789 130.818 85.0224 131.215C85.2557 131.607 85.3724 132.041 85.3724 132.517C85.3724 133.058 85.2277 133.541 84.9384 133.966C84.649 134.386 84.2617 134.678 83.7764 134.841L83.7624 134.498C84.4157 134.685 84.929 135.011 85.3024 135.478C85.6757 135.945 85.8624 136.509 85.8624 137.172C85.8624 137.755 85.7387 138.259 85.4914 138.684C85.244 139.104 84.8964 139.428 84.4484 139.657C84.0004 139.886 83.48 140 82.8874 140H78.6734ZM79.7094 139.013H82.6354C83.046 139.013 83.4147 138.941 83.7414 138.796C84.068 138.647 84.3247 138.437 84.5114 138.166C84.7027 137.895 84.7984 137.569 84.7984 137.186C84.7984 136.813 84.712 136.477 84.5394 136.178C84.3667 135.879 84.131 135.641 83.8324 135.464C83.5384 135.282 83.2024 135.191 82.8244 135.191H79.7094V139.013ZM79.7094 134.218H82.5584C82.8804 134.218 83.1744 134.146 83.4404 134.001C83.7064 133.852 83.9164 133.649 84.0704 133.392C84.229 133.135 84.3084 132.839 84.3084 132.503C84.3084 132.027 84.1427 131.64 83.8114 131.341C83.4847 131.042 83.067 130.893 82.5584 130.893H79.7094V134.218Z" fill="#363636"/>
</svg>
