<svg width="113" height="147" viewBox="0 0 113 147" fill="none" xmlns="http://www.w3.org/2000/svg">
<rect x="0.5" y="0.5" width="112" height="112" rx="9.5" fill="#9C9C9C" stroke="#666666"/>
<path d="M24.377 139.993L25.189 136.962H22.34L22.599 135.975H25.455L26.05 133.728H23.201L23.467 132.741H26.323L27.072 129.92H28.101L27.338 132.741H29.683L30.432 129.92H31.461L30.698 132.741H33.547L33.281 133.728H30.439L29.83 135.975H32.679L32.413 136.962H29.571L28.759 139.993H27.737L28.542 136.962H26.211L25.399 139.993H24.377ZM26.477 135.975H28.815L29.41 133.728H27.079L26.477 135.975ZM38.6906 129.717C39.3252 129.717 39.8992 129.871 40.4126 130.179C40.9306 130.482 41.3412 130.898 41.6446 131.425C41.9479 131.948 42.0996 132.536 42.0996 133.189V136.689C42.0996 137.361 41.9479 137.963 41.6446 138.495C41.3412 139.027 40.9259 139.447 40.3986 139.755C39.8759 140.058 39.2809 140.21 38.6136 140.21C38.0396 140.21 37.5076 140.084 37.0176 139.832C36.5322 139.575 36.1309 139.223 35.8136 138.775L36.5976 138.124C36.8122 138.455 37.0969 138.721 37.4516 138.922C37.8109 139.123 38.1982 139.223 38.6136 139.223C39.0896 139.223 39.5096 139.111 39.8736 138.887C40.2422 138.658 40.5316 138.36 40.7416 137.991C40.9562 137.618 41.0636 137.214 41.0636 136.78V134.582L41.3156 134.876C41.0262 135.338 40.6412 135.711 40.1606 135.996C39.6846 136.281 39.1619 136.423 38.5926 136.423C37.9719 136.423 37.4096 136.274 36.9056 135.975C36.4062 135.676 36.0096 135.275 35.7156 134.771C35.4262 134.267 35.2816 133.705 35.2816 133.084C35.2816 132.463 35.4356 131.899 35.7436 131.39C36.0516 130.877 36.4646 130.471 36.9826 130.172C37.5006 129.869 38.0699 129.717 38.6906 129.717ZM38.6906 130.711C38.2519 130.711 37.8529 130.818 37.4936 131.033C37.1342 131.243 36.8472 131.528 36.6326 131.887C36.4226 132.246 36.3176 132.645 36.3176 133.084C36.3176 133.523 36.4226 133.922 36.6326 134.281C36.8426 134.64 37.1272 134.927 37.4866 135.142C37.8459 135.352 38.2449 135.457 38.6836 135.457C39.1222 135.457 39.5212 135.352 39.8806 135.142C40.2446 134.927 40.5316 134.64 40.7416 134.281C40.9562 133.922 41.0636 133.523 41.0636 133.084C41.0636 132.65 40.9562 132.253 40.7416 131.894C40.5316 131.535 40.2469 131.248 39.8876 131.033C39.5282 130.818 39.1292 130.711 38.6906 130.711ZM48.1352 140.21C47.1319 140.21 46.2849 139.988 45.5942 139.545C44.9036 139.097 44.3809 138.479 44.0262 137.69C43.6716 136.901 43.4942 135.991 43.4942 134.96C43.4942 133.929 43.6716 133.019 44.0262 132.23C44.3809 131.441 44.9036 130.825 45.5942 130.382C46.2849 129.934 47.1319 129.71 48.1352 129.71C49.3066 129.71 50.2632 130.011 51.0052 130.613C51.7472 131.21 52.2559 132.013 52.5312 133.021L51.4812 133.294C51.2666 132.496 50.8816 131.864 50.3262 131.397C49.7709 130.93 49.0406 130.697 48.1352 130.697C47.3466 130.697 46.6909 130.877 46.1682 131.236C45.6456 131.595 45.2512 132.097 44.9852 132.741C44.7239 133.38 44.5886 134.12 44.5792 134.96C44.5746 135.8 44.7029 136.54 44.9642 137.179C45.2302 137.818 45.6269 138.32 46.1542 138.684C46.6862 139.043 47.3466 139.223 48.1352 139.223C49.0406 139.223 49.7709 138.99 50.3262 138.523C50.8816 138.052 51.2666 137.419 51.4812 136.626L52.5312 136.899C52.2559 137.907 51.7472 138.712 51.0052 139.314C50.2632 139.911 49.3066 140.21 48.1352 140.21ZM57.3937 129.717C58.0284 129.717 58.6024 129.871 59.1157 130.179C59.6337 130.482 60.0444 130.898 60.3477 131.425C60.651 131.948 60.8027 132.536 60.8027 133.189V136.689C60.8027 137.361 60.651 137.963 60.3477 138.495C60.0444 139.027 59.629 139.447 59.1017 139.755C58.579 140.058 57.984 140.21 57.3167 140.21C56.7427 140.21 56.2107 140.084 55.7207 139.832C55.2354 139.575 54.834 139.223 54.5167 138.775L55.3007 138.124C55.5154 138.455 55.8 138.721 56.1547 138.922C56.514 139.123 56.9014 139.223 57.3167 139.223C57.7927 139.223 58.2127 139.111 58.5767 138.887C58.9454 138.658 59.2347 138.36 59.4447 137.991C59.6594 137.618 59.7667 137.214 59.7667 136.78V134.582L60.0187 134.876C59.7294 135.338 59.3444 135.711 58.8637 135.996C58.3877 136.281 57.865 136.423 57.2957 136.423C56.675 136.423 56.1127 136.274 55.6087 135.975C55.1094 135.676 54.7127 135.275 54.4187 134.771C54.1294 134.267 53.9847 133.705 53.9847 133.084C53.9847 132.463 54.1387 131.899 54.4467 131.39C54.7547 130.877 55.1677 130.471 55.6857 130.172C56.2037 129.869 56.773 129.717 57.3937 129.717ZM57.3937 130.711C56.955 130.711 56.556 130.818 56.1967 131.033C55.8374 131.243 55.5504 131.528 55.3357 131.887C55.1257 132.246 55.0207 132.645 55.0207 133.084C55.0207 133.523 55.1257 133.922 55.3357 134.281C55.5457 134.64 55.8304 134.927 56.1897 135.142C56.549 135.352 56.948 135.457 57.3867 135.457C57.8254 135.457 58.2244 135.352 58.5837 135.142C58.9477 134.927 59.2347 134.64 59.4447 134.281C59.6594 133.922 59.7667 133.523 59.7667 133.084C59.7667 132.65 59.6594 132.253 59.4447 131.894C59.2347 131.535 58.95 131.248 58.5907 131.033C58.2314 130.818 57.8324 130.711 57.3937 130.711ZM66.8383 140.21C65.835 140.21 64.988 139.988 64.2973 139.545C63.6067 139.097 63.084 138.479 62.7293 137.69C62.3747 136.901 62.1973 135.991 62.1973 134.96C62.1973 133.929 62.3747 133.019 62.7293 132.23C63.084 131.441 63.6067 130.825 64.2973 130.382C64.988 129.934 65.835 129.71 66.8383 129.71C68.0097 129.71 68.9663 130.011 69.7083 130.613C70.4503 131.21 70.959 132.013 71.2343 133.021L70.1843 133.294C69.9697 132.496 69.5847 131.864 69.0293 131.397C68.474 130.93 67.7437 130.697 66.8383 130.697C66.0497 130.697 65.394 130.877 64.8713 131.236C64.3487 131.595 63.9543 132.097 63.6883 132.741C63.427 133.38 63.2917 134.12 63.2823 134.96C63.2777 135.8 63.406 136.54 63.6673 137.179C63.9333 137.818 64.33 138.32 64.8573 138.684C65.3893 139.043 66.0497 139.223 66.8383 139.223C67.7437 139.223 68.474 138.99 69.0293 138.523C69.5847 138.052 69.9697 137.419 70.1843 136.626L71.2343 136.899C70.959 137.907 70.4503 138.712 69.7083 139.314C68.9663 139.911 68.0097 140.21 66.8383 140.21ZM76.0968 129.717C76.7315 129.717 77.3055 129.871 77.8188 130.179C78.3368 130.482 78.7475 130.898 79.0508 131.425C79.3542 131.948 79.5058 132.536 79.5058 133.189V136.689C79.5058 137.361 79.3542 137.963 79.0508 138.495C78.7475 139.027 78.3322 139.447 77.8048 139.755C77.2822 140.058 76.6872 140.21 76.0198 140.21C75.4458 140.21 74.9138 140.084 74.4238 139.832C73.9385 139.575 73.5372 139.223 73.2198 138.775L74.0038 138.124C74.2185 138.455 74.5032 138.721 74.8578 138.922C75.2172 139.123 75.6045 139.223 76.0198 139.223C76.4958 139.223 76.9158 139.111 77.2798 138.887C77.6485 138.658 77.9378 138.36 78.1478 137.991C78.3625 137.618 78.4698 137.214 78.4698 136.78V134.582L78.7218 134.876C78.4325 135.338 78.0475 135.711 77.5668 135.996C77.0908 136.281 76.5682 136.423 75.9988 136.423C75.3782 136.423 74.8158 136.274 74.3118 135.975C73.8125 135.676 73.4158 135.275 73.1218 134.771C72.8325 134.267 72.6878 133.705 72.6878 133.084C72.6878 132.463 72.8418 131.899 73.1498 131.39C73.4578 130.877 73.8708 130.471 74.3888 130.172C74.9068 129.869 75.4762 129.717 76.0968 129.717ZM76.0968 130.711C75.6582 130.711 75.2592 130.818 74.8998 131.033C74.5405 131.243 74.2535 131.528 74.0388 131.887C73.8288 132.246 73.7238 132.645 73.7238 133.084C73.7238 133.523 73.8288 133.922 74.0388 134.281C74.2488 134.64 74.5335 134.927 74.8928 135.142C75.2522 135.352 75.6512 135.457 76.0898 135.457C76.5285 135.457 76.9275 135.352 77.2868 135.142C77.6508 134.927 77.9378 134.64 78.1478 134.281C78.3625 133.922 78.4698 133.523 78.4698 133.084C78.4698 132.65 78.3625 132.253 78.1478 131.894C77.9378 131.535 77.6532 131.248 77.2938 131.033C76.9345 130.818 76.5355 130.711 76.0968 130.711ZM85.5415 140.21C84.5381 140.21 83.6911 139.988 83.0005 139.545C82.3098 139.097 81.7871 138.479 81.4325 137.69C81.0778 136.901 80.9005 135.991 80.9005 134.96C80.9005 133.929 81.0778 133.019 81.4325 132.23C81.7871 131.441 82.3098 130.825 83.0005 130.382C83.6911 129.934 84.5381 129.71 85.5415 129.71C86.7128 129.71 87.6695 130.011 88.4115 130.613C89.1535 131.21 89.6621 132.013 89.9375 133.021L88.8875 133.294C88.6728 132.496 88.2878 131.864 87.7325 131.397C87.1771 130.93 86.4468 130.697 85.5415 130.697C84.7528 130.697 84.0971 130.877 83.5745 131.236C83.0518 131.595 82.6575 132.097 82.3915 132.741C82.1301 133.38 81.9948 134.12 81.9855 134.96C81.9808 135.8 82.1091 136.54 82.3705 137.179C82.6365 137.818 83.0331 138.32 83.5605 138.684C84.0925 139.043 84.7528 139.223 85.5415 139.223C86.4468 139.223 87.1771 138.99 87.7325 138.523C88.2878 138.052 88.6728 137.419 88.8875 136.626L89.9375 136.899C89.6621 137.907 89.1535 138.712 88.4115 139.314C87.6695 139.911 86.7128 140.21 85.5415 140.21Z" fill="#363636"/>
</svg>
