<svg width="60" height="60" viewBox="0 0 60 60" fill="none" xmlns="http://www.w3.org/2000/svg">
<path d="M30 30C27.25 30 24.8958 29.0208 22.9375 27.0625C20.9792 25.1042 20 22.75 20 20C20 17.25 20.9792 14.8958 22.9375 12.9375C24.8958 10.9792 27.25 10 30 10C32.75 10 35.1042 10.9792 37.0625 12.9375C39.0208 14.8958 40 17.25 40 20C40 22.75 39.0208 25.1042 37.0625 27.0625C35.1042 29.0208 32.75 30 30 30ZM10 45V43C10 41.5833 10.365 40.2817 11.095 39.095C11.825 37.9083 12.7933 37.0017 14 36.375C16.5833 35.0833 19.2083 34.115 21.875 33.47C24.5417 32.825 27.25 32.5017 30 32.5C32.75 32.5 35.4583 32.8233 38.125 33.47C40.7917 34.1167 43.4167 35.085 46 36.375C47.2083 37 48.1775 37.9067 48.9075 39.095C49.6375 40.2833 50.0017 41.585 50 43V45C50 46.375 49.5108 47.5525 48.5325 48.5325C47.5542 49.5125 46.3767 50.0017 45 50H15C13.625 50 12.4483 49.5108 11.47 48.5325C10.4917 47.5542 10.0017 46.3767 10 45ZM15 45H45V43C45 42.5417 44.8858 42.125 44.6575 41.75C44.4292 41.375 44.1267 41.0833 43.75 40.875C41.5 39.75 39.2292 38.9067 36.9375 38.345C34.6458 37.7833 32.3333 37.5017 30 37.5C27.6667 37.5 25.3542 37.7817 23.0625 38.345C20.7708 38.9083 18.5 39.7517 16.25 40.875C15.875 41.0833 15.5725 41.375 15.3425 41.75C15.1125 42.125 14.9983 42.5417 15 43V45ZM30 25C31.375 25 32.5525 24.5108 33.5325 23.5325C34.5125 22.5542 35.0017 21.3767 35 20C35 18.625 34.5108 17.4483 33.5325 16.47C32.5542 15.4917 31.3767 15.0017 30 15C28.625 15 27.4483 15.49 26.47 16.47C25.4917 17.45 25.0017 18.6267 25 20C25 21.375 25.49 22.5525 26.47 23.5325C27.45 24.5125 28.6267 25.0017 30 25Z" fill="#FF5800"/>
</svg>
